<?xml version="1.0" encoding="utf-8"?>
<!-- Generator: Adobe Illustrator 19.2.1, SVG Export Plug-In . SVG Version: 6.00 Build 0)  -->
<svg version="1.1" id="layer" xmlns="http://www.w3.org/2000/svg" xmlns:xlink="http://www.w3.org/1999/xlink" x="0px" y="0px"
	 viewBox="0 0 652 652" style="enable-background:new 0 0 652 652;" xml:space="preserve">
<style type="text/css">
	.st0{fill:#009FE3;}
</style>
<g>
	<path class="st0" d="M92.1,323.3l-3.5-28.8l22.3-15.3l-29.3-38.8c-22.3,14.7-42.4,52.3-37.7,74.3C59.1,318.9,92.1,323.3,92.1,323.3
		"/>
	<path class="st0" d="M43.9,326.3l47.7,8.2l19.4,19.4c0,0-14.7,27-21.1,38.2C68.1,383.9,43.6,352.7,43.9,326.3"/>
	<path class="st0" d="M120,362l36.7-7.5l24.1,45.2c0,0-42.4,13.9-69.8,5.9C115.3,377.3,120,362,120,362"/>
	<polygon class="st0" points="175.5,343.9 180.7,338 220.7,359.2 209.5,380.6 	"/>
	<polygon class="st0" points="190.1,326.3 190.1,302.2 227.7,281.9 231.2,342.1 	"/>
	<polygon class="st0" points="175.5,281.9 183.1,292.8 245.3,258.7 231.2,244.6 	"/>
	<path class="st0" d="M97.4,231.7l26.4,37l18.8-7.6l18.8,14.7l36.7-28.8C198.1,247,164.3,201.1,97.4,231.7"/>
	<path class="st0" d="M152.6,425l3.5,19.4c0,0,42-7.3,64.6-23.5c-5.3-10-10-17-10-17l-24.1,20.3L152.6,425z"/>
	<polygon class="st0" points="224.2,392.1 241.2,403.8 257.6,374.5 240.9,369.2 	"/>
	<path class="st0" d="M245.3,303.4c2.2,12.7,3.6,38.8,0,48.2c7.1,2.9,18.2,7.6,18.2,7.6s9.4-29.4,0-58.7
		C254.4,302.3,245.3,303.4,245.3,303.4"/>
	<polygon class="st0" points="240.9,275.8 246.7,290.4 260.6,286 255.6,268 	"/>
	<polygon class="st0" points="175.5,221.2 180.7,212.3 224.2,228.3 206.8,240.5 	"/>
	<polygon class="st0" points="86.8,209 143.9,198.9 162.1,202.3 158.9,212.1 145.8,209 92.6,219 	"/>
	<polygon class="st0" points="57.5,233.3 63.2,236.9 38.9,278.7 23.1,278.7 	"/>
	<path class="st0" d="M21.6,305.8c-5.1,34.9,5.3,60.6,8.8,63.5l10.5-1c0,0-11.8-41.7-14.5-63.5L21.6,305.8z"/>
	<path class="st0" d="M41.2,394l10.6-8.8c0,0,18.2,18.6,38.7,27.1c-4.6,8.8-6.2,11.7-6.2,11.7S54.2,409.8,41.2,394"/>
	<polygon class="st0" points="104.2,419.6 104.2,432.8 134.2,441.6 135.7,424.1 	"/>
	<path class="st0" d="M372.3,367.5c-8.4,9.8-18.4,15.3-30.1,15.3c-20.6,0-34.9-13.7-34.9-31.4c0-19.6,14.1-36.9,65.3-39.3v-3.1
		c0-17.7-6.9-24.9-24.6-24.9c-11.2,0-25.1,5.3-35.4,12.2l-3.8-17.7c9.6-6.7,25.6-12.7,41.2-12.7c29.7,0,42.8,12.7,42.3,42.6v46
		c0,9.1,1.2,10.8,10.8,10.8l-1.2,16.5c-17.7,1.4-25.6-4.8-28.5-14.4H372.3z M372.5,324.6c-32.5,4.3-44.5,11-44.5,24.4
		c0,9.8,7.4,17,19.4,17c10.1,0,18.9-5,25.1-11.7V324.6z"/>
	<path class="st0" d="M418.2,379.3v-17c33.5-24.9,63.9-43.6,63.9-62.3c0-11-8.4-18.9-22.7-18.9c-12,0-22.7,5.3-34,13.7l-6.9-16.8
		c11.2-8.9,25.4-15.3,43.1-15.3c24.4,0,41.4,13.9,41.4,35c0,26.1-23.7,40.5-54.8,63h60.1v18.7H418.2z"/>
	<path class="st0" d="M589.5,367.5c-8.4,9.8-18.4,15.3-30.2,15.3c-20.6,0-34.9-13.7-34.9-31.4c0-19.6,14.1-36.9,65.3-39.3v-3.1
		c0-17.7-6.9-24.9-24.6-24.9c-11.2,0-25.1,5.3-35.4,12.2l-3.8-17.7c9.6-6.7,25.6-12.7,41.2-12.7c29.7,0,42.8,12.7,42.3,42.6v46
		c0,9.1,1.2,10.8,10.8,10.8l-1.2,16.5c-17.7,1.4-25.6-4.8-28.5-14.4H589.5z M589.8,324.6c-32.5,4.3-44.5,11-44.5,24.4
		c0,9.8,7.4,17,19.4,17c10.1,0,18.9-5,25.1-11.7V324.6z"/>
</g>
</svg>
