<svg xmlns="http://www.w3.org/2000/svg" width="1552" height="397"><path fill="#216500" d="M157 315.3c1.6-2.3-1.5-4.7-3.6-2.6-8.8 9.6-24.6 19.1-51.7 18.9-45.1 0-82-49.6-101.7-86.1 1.8 26.1 9.8 50.4 22.5 71.6 13.7 23 39.8 36.2 66.5 33.1 32.1-3.6 56.4-16.8 68-34.9"/><path fill="#fe3f3b" d="M240.6 300.1c-20.2-48.6-54.6-77.1-84.9-78.6-2.6 0-3.3 3.9-.8 4.4 12.7 2.8 28.8 11.6 42.2 35.1 23 40.3-3.6 99.8-25.9 134.7 5.7-.3 11.2-1.1 16.9-1.8 43.1-7 69.3-52.8 52.7-93.3 0-.3-.2-.5-.2-.5"/><path fill="#00a2e0" d="M94.4 158.2C62.3 200 54.8 244 68.8 270.8c1.3 2.4 4.9 1.1 4.1-1.8-3.8-12.4-4.1-30.7 9.4-54.2 27.6-46.8 112-47.8 148.7-42.9 37.5 4.9 65.7 11.6 85.9 12.1-.3-.5-.3-.8-.3-1.3-21.7-65.9-96.2-98.2-159.8-70-25.1 11.1-47.4 26.3-62.4 45.5"/><path fill="#5dba27" d="M162.2 379.9c31-42.6 37.2-86.8 22.5-113.4-1.3-2.4-4.9-.8-4.2 1.8 4.2 12.4 5.2 30.5-8 54.5-17.6 31.8-60.8 43.9-98.5 47.3 16.5 10.6 34.9 18.3 54.8 22.5 12.7 2.6 25.6-2.4 33.4-12.7"/><path fill="orange" d="M211.1 185.8c-52.5-5.4-93.9 11.1-109.7 37.2-1.6 2.4 1.8 4.7 3.6 2.6 8.6-9.8 24.1-19.6 51.2-20.4 54.6-1.3 99.6 70 114.6 103.9 5.2 11.4 9.3 22 13.5 31.8l.8-.8c38.8-44.4 24.8-114.2-28.2-140.3-15.3-7.3-30.6-12.4-45.8-14"/><path fill="#004aa0" d="M103.5 322.8c2.8 0 3.1-3.9.5-4.4-12.7-2.6-29-10.9-43.2-34.1-28.5-46.5 11.1-121.2 32.8-150.9 18.7-25.4 35-44.8 45.8-60.5-46.3 6.4-86.4 32.3-111.5 69.2-20.1 29.5-26.1 67-13.2 100.3.6 1.6 1.3 2.9 1.9 4.4 21.4 47.8 56.6 75.5 86.9 76"/><g fill="#00a2e0"><path d="M390.3 327.7v68h43.2v-10.4h-30v-19.1h28.2v-10.1h-28.2V338h29.2v-10.3zM506.5 327.7v48.1l-42.2-48.1h-11.4v68h13v-47.6l41.9 47.6h11.6v-68zM541.4 327.7v68h43.2v-10.4h-30.3v-19.1h28.2v-10.1h-28.2V338h29.3v-10.3z"/><path fill-rule="evenodd" d="M627 327.7c14.8 0 22.3 8.8 22.3 19.6 0 7.8-3.7 13.7-11.4 16.8 4.1 2.6 6.4 4.7 11.9 14l10.3 17.6h-14.7l-9.3-16.3c-6.2-10.6-10.1-12.4-15.3-12.4h-3.9v28.7h-13.2v-68zm-10.1 29.7h6.8c6.9 0 12.1-1.8 12.1-10.1 0-6.2-3.6-9.8-10.8-9.8h-8.1z"/><path d="M731.3 344.2c-7.6-4.3-15.8-6.7-23.6-6.7-16 0-25.6 11.4-25.6 24.3 0 13.5 10.1 24.1 25.1 24.1 4.7 0 7-.6 13.2-2.4v-12.1h-11.9v-10.1h24v30c-9 3.9-17.5 5.7-26.6 5.7-24.8 0-37.5-16.6-37.5-34.7 0-18.8 14-35.4 37.5-35.4 8.5 0 15 1.3 25.1 5.5v11.8zM767.2 327.7v68H754v-68z"/><path fill-rule="evenodd" d="m822.3 327.4 30.3 68.3h-13.5l-7.7-18.1h-29.3l-7.5 18.1h-13.4l29.2-68.3zm-16 40.4H827l-10.6-24.6z"/><path d="M961.5 332.1V345c-7.5-4.4-15-7-23.3-7-16.1 0-25.4 11.4-25.4 23.8s9.3 23.5 25.1 23.5c8.6 0 16.6-2.5 23.8-7.5v12.7c-7.7 4.1-16.3 5.9-25.3 5.9-24.6 0-37.3-17.3-37.3-34.8 0-20.7 16.3-34.9 37.3-34.9 8 .2 16.3 1.8 25.1 5.4M1030.3 327.7v27.9h-35.7v-27.9h-13.2v68h13.2V367h35.7v28.7h13.2v-68zM1065.4 327.7v68h43.2v-10.4h-30v-19.1h28v-10.1h-28V338h29v-10.3zM1175.6 327.7V366c0 13.4 6.2 19.3 18.4 19.3 11.9 0 17.9-5.6 17.9-19.1V328h13.1v38.5c0 19.4-10.8 30.5-31 30.5s-31.6-10.6-31.6-30.3V328h13.2zM1299.8 327.7v48.1l-42.2-48.1h-11.3v68h12.9v-47.6l41.9 47.6h11.6v-68zM1347.9 327.7v68h-13.2v-68zM1406.6 331.8v12.7c-5.4-4.6-11.1-7.2-17.3-7.2-6 0-9.1 2.8-9.1 6.9 0 3.4 1.3 6.2 10.9 11.4 12.9 7 18.4 11.9 18.4 22.2 0 10.9-8.8 18.6-21.5 18.6-7 0-14-2-20.2-5.9v-13.7q9 9.3 19.2 9.3c5.9 0 9.5-3.3 9.5-7.7 0-4.2-1.3-6.8-13.7-13.5-8.8-4.9-15.2-10.3-15.2-20.1 0-10.1 8.2-17.9 21.4-17.9 6.2 0 12.7 1.8 17.6 4.9M1485.8 332.1V345c-7.5-4.4-15-7-23.3-7-16 0-25.3 11.4-25.3 23.8s9.3 23.5 25 23.5c8.6 0 16.6-2.5 23.8-7.5v12.7c-7.7 4.1-16.3 5.9-25.3 5.9-24.6 0-37.3-17.3-37.3-34.8 0-20.7 16.3-34.9 37.3-34.9 8 .2 16.3 1.8 25.1 5.4M1505.7 327.7v68h43.2v-10.4h-30v-19.1h27.9v-10.1h-27.9V338h29v-10.3z"/><path fill-rule="evenodd" d="m547.6 239.3-2.1 27.9c-30.2 2.6-43.2-8.2-48.1-24.3h-1.5c-14 16.6-31.1 25.9-50.7 25.9-34.7 0-59-22.5-59-52.7 0-33.6 23.8-61.8 110.2-66.2v-5.2c0-30.2-11.4-41.8-41.7-41.8-18.8 0-42.4 9-59.7 20.6l-6.5-29.7c16.1-11.4 43.2-21.4 69.3-21.4 50.5 0 72.7 21.4 71.4 71.8v77.5c0 15 2.1 18.1 18.4 17.6m-51.5-68.2c-54.8 6.7-75 18.6-75 41.1 0 16.5 11.9 28.7 32.6 28.7 17.3 0 31.6-8.3 42.4-19.7z"/><path d="M655.7 96.7c19.4 0 37 5.6 51.2 14.9l6.5-22.4c-15.8-10.1-35.2-15.8-57.7-15.8-52.5 0-90.8 40.3-90.8 97.9 0 57.2 34.4 97.2 90.3 97.2 21.5 0 41.6-5.9 57.2-15.7l-5.2-23C693 239.1 674.9 245 656 245c-39.1 0-65.5-29.5-65.5-74.7.3-43.4 24.9-73.6 65.2-73.6M758.4 0c-11.4 0-17.1 8.5-17.1 17.8 0 9.6 5.7 18.6 17.1 18.6s17.1-8.7 17.1-18.6c-.3-9.3-6-17.8-17.1-17.8M745.7 263.4h25.1v-190l-25.1 5.2zM906.9 73.4c-19.4 0-43.5 10.9-62.9 30.2V73.4l-25.1 5.2v184.5H844V123.3c15.8-15.8 35.5-26.1 56.2-26.1 27.9 0 40.8 14.4 40.8 46.8v119.4h25.1V136.7c-.5-40.3-22.2-63.3-59.2-63.3M1339.9 218.4c-15 15.7-35.4 26.1-56.9 26.1-27.4 0-39.8-14.5-39.8-46.8V78.6h-25.1v126.6c0 40.3 22.2 63.3 58.2 63.3 20.7 0 44.7-10.3 63.6-29.7v29.7l25.1-5.1V78.6h-25.1z"/><g fill-rule="evenodd"><path d="M1422.9 171.3v2.1c1.3 41.9 25.9 71.3 64.7 71.3 20.4 0 39.3-5.9 53.5-15.2l5 23c-15.8 9.8-36.3 15.8-59.3 15.8-53.3 0-89.2-39.6-89.2-95.9 0-58.2 37.2-99.3 87.1-99.3 40.7 0 67.3 26.4 67.3 68.3 0 9.8-1.3 21.4-4.1 29.4zm1.5-19.4 102.4-.5c.6-2 .6-5.9.6-8 0-28.7-15.6-47.5-44.5-47.5-33.4 0-54.1 25.6-58.5 56M1176.4 245.8l6.2 22.7h-91.8c-51.5-.2-88.7-38-88.7-97.2 0-58.9 39.3-97.9 91-97.9 51.8 0 88.7 38 88.7 97.2 0 31.8-11.6 57.9-30.5 75.2zm-85.6 0h4.7c37.2-1.6 61.8-32.1 61.8-74.5 0-45.2-26.4-75.4-65.5-75.4-39 0-64.9 31.3-64.9 74.7 0 44.4 25.6 74.4 63.9 75.2"/></g></g></svg>