<svg xmlns="http://www.w3.org/2000/svg" width="1565" height="576"><clipPath id="a"><path d="M-1009.99-3.35h2574.98v578.67h-2574.98z"/></clipPath><clipPath id="b"><path d="M-1009.99-3.35h2574.98v578.67h-2574.98z"/></clipPath><clipPath id="c"><path d="M-1009.99-3.35h2574.98v578.67h-2574.98z"/></clipPath><clipPath id="d"><path d="M-1009.99-3.35h2574.98v578.67h-2574.98z"/></clipPath><clipPath id="e"><path d="M-1009.99-3.35h2574.98v578.67h-2574.98z"/></clipPath><clipPath id="f"><path d="M-1009.99-3.35h2574.98v578.67h-2574.98z"/></clipPath><clipPath id="g"><path d="M-1009.99-3.35h2574.98v578.67h-2574.98z"/></clipPath><path fill="#f9b000" d="M0 371.7h1565v23.1H0z"/><path fill="#14387f" d="M9.7 339.2h207.7V0zM218.1 339.2h208V0z"/><g clip-path="url(#a)"><path fill="#14387f" fill-rule="evenodd" d="M616.4 257.3H495.3c1.3 35.9 22.1 59 53.7 59 15.7 0 37.9-6.3 47.3-12.4l6.7-4v32.9l-2.7 1c-15.1 6.4-35.6 10.1-53 10.1-54.7 0-84.9-34.3-84.9-97 0-57 32.5-96.9 79.2-96.9 46.9 0 74.8 34.5 74.8 92.2zm-32.9-26.8c-1-26.5-12.1-53-40.6-53-28.2 0-46 26.8-47.6 53z"/></g><g clip-path="url(#b)"><path fill="#14387f" fill-rule="evenodd" d="M824.4 70.8v269h-30.5v-19.1c-12.1 15.4-29.2 23.2-51.7 23.2-47.6 0-77.1-36.9-77.1-97 0-62.4 27.1-96.9 77.1-96.9 26.2 0 42.6 13 51.7 24.4V70.8zm-30.2 176.4c0-25.8-10.4-69.7-48.3-69.7-42 0-48.3 43.6-48.3 69.7 0 26.2 6.3 69.8 48.3 69.8 37.9 0 48.3-43.9 48.3-69.8"/></g><g clip-path="url(#c)"><path fill="#14387f" fill-rule="evenodd" d="M996.9 340.2v-19.5c-13.4 16.1-35.2 23.8-52.7 23.8-59.7 0-62.7-45.3-62.7-54.3 0-66.4 73.8-66.4 113.4-66.4v-4.7c0-29.2-10.4-41.3-35.9-41.3-19.1 0-35.2 4.4-50 13.8l-6.7 4.3V164l2.3-1.3c14.5-7.4 38.3-12.7 54.1-12.7 45.9 0 66.4 21.8 66.4 70.4v78.2c0 14.4 0 24.8 1.7 36.5l.6 5.1zm-2.3-89.6h-2c-41 0-78.9 4.7-78.9 38.6 0 23.1 17.8 27.8 32.6 27.8 42.9 0 48.3-31.9 48.3-59.7z"/></g><g clip-path="url(#d)"><path fill="#14387f" d="M1081.5 247.2c0 48.3 27.5 97 89.2 97 17.1 0 31.6-1 47-6.4l3.4-1-3.1-29.5-5.3 2c-14.5 5.4-26.5 7.7-38.6 7.7-35.3 0-60.1-28.5-60.1-69.8 0-42.9 23.8-69.7 62.4-69.7 10.4 0 23.8 3.3 36.3 8.7l5.3 2.3 2.4-30.2-3.4-1c-5.3-1.6-21.4-7-43.9-7-53.7-.3-91.6 39.6-91.6 96.9"/></g><g clip-path="url(#e)"><path fill="#14387f" d="M1289.2 112.7v41.6h-34.9v27.5h34.9v99.3c0 29.5 0 63.4 44.6 63.4 12.1 0 23.5-3.3 28.5-5l3-1.4-2-26.8-5.3 2c-6.4 2.4-11.5 4.1-18.5 4.1-4.7 0-19.5 0-19.5-24.9v-111h40.3v-27.2H1320V102z"/></g><g clip-path="url(#f)"><path fill="#14387f" fill-rule="evenodd" d="M1519 340.2v-19.5c-13.4 16.1-35.2 23.8-52.7 23.8-59.7 0-62.7-45.3-62.7-54.3 0-66.4 73.8-66.4 113.4-66.4v-4.7c0-29.2-10.4-41.3-35.9-41.3-19.1 0-35.2 4.4-50 13.8l-6.7 4.3V164l2.3-1.3c14.5-7.4 38.3-12.7 54.1-12.7 45.9 0 66.4 21.8 66.4 70.4v78.2c0 14.4 0 24.8 1.7 36.5l.7 5.1zm-2.4-89.6h-2c-40.9 0-78.9 4.7-78.9 38.6 0 23.1 17.8 27.8 32.6 27.8 42.9 0 48.3-31.9 48.3-59.7z"/></g><path fill="#e30613" d="M1410.6 418.7H1565V573h-154.4z"/><path fill="#fff" d="M1541.2 479h-38.3v-36.9h-31.5V479h-37.3v31.2h37.3v39.3h31.5v-39.3h38.3z"/><g clip-path="url(#g)"><path fill="#14387f" fill-rule="evenodd" d="M10.7 476.7h9.8v96.9h-9.8zm31.9 97v-54c0-5.4 0-11.1-.7-16.8h8.4v12.8h.4c2.7-6.4 8-14.5 22.8-14.5 17.4 0 24.1 11.8 24.1 27.2v45.3h-8.7v-43.3c0-13.1-4.7-21.8-16.8-21.8-16.1 0-21.1 14.1-21.1 25.8v39.3zM151 509.3h-16.1v45.9c0 6.4 2.3 11.8 9.4 11.8 3.3 0 5.7-.7 8-1.7l.7 7.4c-2 1-6.4 2-10.7 2-15.5 0-16.1-10.4-16.1-23.5V510h-13.8v-7.4h13.8v-17.1l8.7-3.1v20.2H151zm64.1 62.4c-6.1 2.7-14.1 4-20.5 4-23.5 0-32.2-16.1-32.2-37.2 0-21.8 12.1-37.3 29.9-37.3 20.1 0 28.1 16.1 28.1 35.2v4.4h-48.6c0 15.1 8 27.2 23.5 27.2 6.4 0 15.7-2.7 19.8-5.4zm-4.4-38.6c0-12.4-5-24.5-18.1-24.5-12.8 0-20.8 12.8-20.8 24.5zm27.2 40.6v-55c0-7.7 0-10.7-.7-15.8h8.7v13.8h.4c3-8.1 9-15.4 18.1-15.4 2 0 4.3.3 6 .6v9.1c-1.7-.3-4-.7-6.4-.7-14.1 0-17.7 15.8-17.7 28.5v34.9zm49.6 0v-54c0-5.3 0-11.1-.7-16.8h8.4v12.8h.4c2.7-6.4 8-14.4 22.8-14.4 17.4 0 24.1 11.7 24.1 27.1v45.3h-8.7v-43.2c0-13.1-4.7-21.9-16.8-21.9-16.1 0-21.1 14.1-21.1 25.9v39.2zm118.5 0v-11.4h-.4c-3.7 8.4-13.7 13.1-22.5 13.1-20.1 0-23.5-13.7-23.5-20.1 0-23.8 25.2-24.8 43.7-24.8h1.6v-3.7c0-12.1-4.3-18.2-16.1-18.2-7.3 0-14.4 1.7-20.8 5.8V506c5.4-2.4 14.5-4.7 20.8-4.7 17.5 0 24.9 8 24.9 26.5V559c0 5.7 0 10 .6 14.7zm-1.3-31.5v-4.4h-2.3c-15.1 0-33.3 1.7-33.3 17.1 0 9.4 6.7 12.8 14.8 12.8 20.8 0 21.1-17.8 21.1-25.5zm61.1-32.9h-16.1v46c0 6.4 2.3 11.7 9.4 11.7 3.3 0 5.7-.7 8-1.7l.7 7.4c-2 1-6.4 2-10.7 2-15.5 0-16.1-10.4-16.1-23.4V510h-13.8v-7.4H441v-17.1l8.7-3v20.1h16.1zm16.4-6.4h8.8v70.8h-8.8zm.4-30.8h8.7v11.7h-8.7zm59 28.8c23.2 0 33.3 17.8 33.3 37.3 0 19.4-10.4 37.2-33.3 37.2-23.1 0-33.2-17.8-33.2-37.2 0-19.5 10.4-37.3 33.2-37.3m0 66.8c15.5 0 23.5-13.1 23.5-29.5 0-16.5-8-29.5-23.5-29.5-15.4 0-23.5 13-23.5 29.5 0 16.4 8.1 29.5 23.5 29.5m50.7 6v-54c0-5.3 0-11-.7-16.7h8.4v12.7h.4c2.6-6.4 8-14.4 22.8-14.4 17.4 0 24.1 11.7 24.1 27.2v45.2h-8.7v-43.2c0-13.1-4.7-21.8-16.8-21.8-16.1 0-21.1 14.1-21.1 25.8v39.2zm118.4-11.4h-.3c-3.7 8.4-13.8 13.1-22.5 13.1-20.1 0-23.5-13.7-23.5-20.1 0-23.8 25.2-24.8 43.7-24.8h2v-3.7c0-12.1-4.4-18.1-16.1-18.1-7.4 0-14.5 1.6-20.8 5.7V506c5.3-2.4 14.4-4.7 20.8-4.7 17.4 0 24.8 8 24.8 26.5V559c0 5.7 0 10 .7 14.7h-8.8zm-1.3-20.1v-4.3h-2.3c-15.1 0-33.3 1.6-33.3 17.1 0 9.4 6.7 12.7 14.8 12.7 20.8 0 21.1-17.8 21.1-25.5zm30.9-72.8h8.7v104.3h-8.7z"/></g></svg>