<svg xmlns="http://www.w3.org/2000/svg" width="1601" height="266"><path fill="#8ec300" fill-rule="evenodd" d="m772.9 2.1-111 131 111 130.9H644.7l-46.9-55.2L551 264H216.6L105.1 141.4V264H0V2.1h105.1l111.5 122.6V2.1h334.3l46.9 55.3 46.9-55.3zM321.6 37h130.5l-14.8-17.4H321.7zm0 34.9h160l-14.8-17.5H321.6zm0 34.9h189.7l-14.8-17.4H321.6zm0 34.9h204.5l7.4-8.7-7.4-8.8H321.6zm0 35h174.9l14.8-17.5H321.6zm0 34.9h145.3l14.8-17.4H321.6zm0 34.9h115.6L452 229H321.6z"/><g fill="#1a005d"><path d="M824.4 2.1h24.9l57.6 75.6V2.1h26.6v122.8h-22.9l-59.5-78.1v78.1h-26.7zM984 2.1h27v122.8h-27z"/><g fill-rule="evenodd"><path d="M1061.3 2.1h50.2c29.3 0 47 17.4 47 42.5v.3c0 28.4-22.1 43.2-49.7 43.2h-20.5v36.8h-27zm48.4 61.9c13.5 0 21.4-8 21.4-18.6v-.3c0-12.1-8.4-18.6-21.9-18.6h-20.9v37.6zM1196 2.1h50.2c29.3 0 47 17.4 47 42.5v.3c0 28.4-22.1 43.2-49.6 43.2h-20.5v36.8H1196zm48.5 61.9c13.5 0 21.4-8 21.4-18.6v-.3c0-12.1-8.4-18.6-22-18.6h-20.8v37.6zM1321.9 63.9v-.4c0-34.9 27.5-63.5 65.4-63.5s65.1 28.2 65.1 63.2v.3c0 34.9-27.6 63.5-65.4 63.5-37.9 0-65.1-28.2-65.1-63.1m102.2 0v-.4c.2-5-.6-10-2.4-14.6-1.8-4.7-4.5-9-8-12.6s-7.6-6.4-12.2-8.4-9.6-3-14.6-3c-21.7 0-36.8 17.2-36.8 38.3v.3c-.2 5 .7 10 2.5 14.7 1.7 4.6 4.5 8.9 7.9 12.5 3.5 3.6 7.7 6.5 12.3 8.4 4.6 2 9.5 3 14.5 3 21.8 0 36.8-17.2 36.8-38.2"/></g><path d="M1488.3 2.1h24.9l57.5 75.6V2.1h26.7v122.8h-23L1515 46.8v78.1h-26.7zM906 151.2v11.6h-68.8v38.6h61.5V213h-61.5v39.4h69.6V264h-82.4V151.2zM1029.2 151.2l-41.7 55.1 43.3 57.7h-15.1l-36.1-48.5-36.1 48.5h-14.7l43.4-57.5-41.8-55.3h15l34.7 46.1 34.3-46.1z"/><path fill-rule="evenodd" d="M1059.3 151.2h42.2c25.5 0 42.2 13.6 42.2 35.8v.3c0 24.4-20.3 36.9-44.3 36.9H1072V264h-12.7zm40.6 61.4c18.7 0 30.9-10 30.9-24.8v-.3c0-16.1-12.1-24.5-30.3-24.5H1072v49.6zM1174.4 151.2h48.5c13.8 0 25 4.2 32 11.3q2.2 2.2 3.8 4.8 1.7 2.6 2.8 5.5 1.1 2.8 1.7 5.8.5 3.1.4 6.1v.4c0 18.7-12.8 29.6-30.6 32.8l34.7 46.1H1252l-32.7-43.8h-32.2V264h-12.7zm47.3 57.6c17 0 29.1-8.7 29.1-23.2v-.4c0-13.8-10.7-22.2-28.9-22.2h-34.8v45.8z"/><path d="M1381.8 151.2v11.6H1313v38.6h61.5V213H1313v39.4h69.6V264h-82.4V151.2zM1407.6 247.6l7.9-9.3c11.7 10.6 23 15.9 38.6 15.9 15.2 0 25.2-8 25.2-19.2v-.3c0-10.5-5.7-16.4-29.4-21.4-25.9-5.7-37.8-14.1-37.8-32.6v-.3c0-17.7 15.6-30.8 37-30.8q5.4-.2 10.7.7 5.4.8 10.4 2.6 5.1 1.7 9.8 4.4t8.8 6.2l-7.4 9.8q-3.4-3-7.2-5.2-3.8-2.3-8-3.9t-8.5-2.4q-4.4-.8-8.9-.8c-14.6 0-24 8.1-24 18.2v.4c0 10.6 5.8 16.6 30.6 21.9 25.2 5.5 36.8 14.7 36.8 31.9v.3c0 19.4-16.1 31.9-38.5 31.9q-6.4.1-12.7-1-6.2-1.2-12.1-3.5-6-2.3-11.3-5.7c-3.6-2.3-7-4.9-10-7.8M1515.4 247.6l7.9-9.3c11.7 10.6 23 15.9 38.7 15.9 15.1 0 25.1-8 25.1-19.2v-.3c0-10.5-5.6-16.4-29.3-21.4-26-5.7-37.9-14.1-37.9-32.6v-.3c0-17.7 15.6-30.8 37.1-30.8q5.3-.2 10.7.7 5.3.8 10.4 2.6 5 1.7 9.7 4.4t8.8 6.2l-7.4 9.8q-3.4-3-7.2-5.2-3.8-2.3-8-3.9-4.1-1.6-8.5-2.4t-8.9-.8c-14.6 0-24 8.1-24 18.2v.4c0 10.6 5.8 16.6 30.7 21.9 25.1 5.5 36.7 14.7 36.7 31.9v.3c0 19.4-16.1 31.9-38.5 31.9q-6.4.1-12.6-1-6.3-1.2-12.2-3.5t-11.3-5.7c-3.6-2.3-6.9-4.9-10-7.8"/></g></svg>