<svg role="img" class="logo_logo__QF_Bb undefined local-menu_local-menu-logo__hpkgH" width="140" height="48" viewBox="0 0 400 120" fill="none" xmlns="http://www.w3.org/2000/svg"><path d="M177.58 70.1155C177.58 71.1892 177.416 72.1045 177.002 72.5152C176.588 73.0139 175.935 73.3424 175.44 73.5067C173.959 74.0054 171.574 74.3339 167.62 74.3339C163.667 74.3339 161.533 73.5067 160.792 71.5999C160.297 70.5262 160.215 68.373 160.215 66.2198V41.4258H151.078V67.4636C151.078 71.1071 151.241 74.4982 152.151 76.7394C153.387 80.0484 156.839 82.2838 166.058 82.2838C171.486 82.2838 178.979 81.8731 183.918 79.7199C185.644 78.8926 186.717 77.4024 186.717 74.5041V41.4316H177.585V70.1155H177.58Z" fill="white"></path><path d="M231.357 43.8661C230.121 40.6392 227.241 38.7324 219.509 38.7324C213.416 38.7324 204.529 39.8941 199.346 42.2116C197.62 42.9567 196.547 44.4469 196.547 47.2631V82.2892H205.678V51.3231C205.678 50.3315 205.841 49.5043 206.174 49.0877C206.582 48.589 207.241 48.2605 207.736 48.0962C209.136 47.5154 212.098 46.6881 216.459 46.6881C220.407 46.6881 221.975 47.4332 222.547 49.34C222.879 50.4137 223.043 52.3205 223.043 53.975V82.2892H232.174V51.986C232.174 48.8413 232.092 45.943 231.352 43.8719L231.357 43.8661Z" fill="white"></path><path d="M271.452 41.8773C269.143 39.5539 265.434 38.6504 258.367 38.6504C254.554 38.6504 249.913 39.1784 245.965 40.1641V47.9966C246.706 47.891 247.679 47.7032 248.402 47.5976C251.277 47.0109 254.402 46.6824 257.044 46.6824C262.478 46.6824 264.035 47.756 264.694 49.4985C265.102 50.5722 265.184 52.391 265.184 53.9692V56.7032C263.044 56.4509 259.761 56.3688 257.201 56.3688C251.778 56.3688 246.834 57.1902 244.21 58.8506C241.003 60.9216 239.604 63.9901 239.604 68.9536C239.604 76.0703 242.152 82.2776 254.735 82.2776C260.42 82.2776 267.493 81.2039 270.7 79.878C272.018 79.3852 272.758 78.7222 273.335 77.9771C274.076 77.0618 274.245 75.7359 274.245 74.2456V52.7958C274.245 47.1693 273.586 43.9424 271.446 41.8714L271.452 41.8773ZM265.184 69.7808C265.184 70.8545 265.102 71.8519 264.851 72.597C264.694 73.1837 264.204 73.6707 263.464 74.0051C261.971 74.5918 259.429 75.0788 255.889 75.0788C249.714 75.0788 248.315 72.5149 248.315 68.7072C248.315 66.3838 248.88 65.1518 250.122 64.4066C251.598 63.4092 254.157 62.9985 258.262 62.9985C260.571 62.9985 263.458 63.157 265.172 63.333V69.7867L265.184 69.7808Z" fill="white"></path><path d="M286.069 42.6281C284.425 43.9541 283.848 44.9456 283.848 47.7618V79.2266C283.848 80.6347 284.425 81.3798 285.743 81.3798H291.008C292.326 81.3798 292.985 80.5526 292.985 79.2266V51.6575C292.985 50.4958 293.148 49.7507 293.311 49.34C293.556 48.7592 294.133 48.4306 294.629 48.1783C296.11 47.3511 298.664 46.8524 301.375 46.8524C302.431 46.8524 304.775 47.0167 305.702 47.0167V38.973C304.746 38.8263 303.469 38.7383 301.789 38.7383C295.784 38.7383 288.542 40.8093 286.075 42.6281H286.069Z" fill="white"></path><path d="M343.925 62.7463C344.508 62.3356 344.665 61.4203 344.665 60.0944C344.665 47.3512 343.516 38.6562 328.216 38.6562C315.458 38.6562 308.875 44.8694 308.875 60.6752C308.875 75.5833 313.977 82.2835 328.543 82.2835C332.525 82.2835 340.018 81.7906 343.557 80.717V72.9666C343.067 73.0605 342.583 73.1896 342.117 73.301C339.639 73.964 333.884 74.5096 329.61 74.5096C322.525 74.5096 318.333 72.6909 318.251 63.2391H342.117C342.858 63.2391 343.516 63.0807 343.925 62.7463ZM335.942 56.3747H318.333C318.502 49.6569 320.893 45.9431 327.802 45.9431C334.712 45.9431 336.035 49.0878 336.035 54.638C336.035 55.2071 336.035 55.8701 335.942 56.3747Z" fill="white"></path><path d="M373.05 39.8125H365.021V29.3105H356.391C356.134 35.4299 356.053 39.8125 356.053 39.8125H351.365L351.26 39.9181V47.5981H355.89V64.4892C355.89 71.031 356.385 74.7565 358.607 77.4906C361.406 80.9697 365.685 81.8791 373.75 81.8791C374.134 81.8791 374.455 81.8263 374.741 81.7383V74.252C374.741 74.252 374.706 74.2168 374.688 74.1992C370.414 73.9645 367.604 73.3074 366.426 71.6998C365.441 70.3739 365.027 68.4729 365.027 64.8295V47.6098H373.067V39.836H373.062L373.05 39.8125Z" fill="white"></path><path d="M386.559 32.108C389.935 32.108 391.743 30.6178 391.743 26.6458C391.743 22.4215 389.772 21.1836 386.559 21.1836C383.346 21.1836 381.457 22.8381 381.457 26.7279C381.457 30.9522 383.597 32.108 386.559 32.108Z" fill="white"></path><path d="M382.117 39.8945V79.2271C382.117 80.7173 382.776 81.3803 384.012 81.3803H389.278C390.595 81.3803 391.254 80.6352 391.254 79.2271V39.8945H382.117Z" fill="white"></path><path d="M118.778 75.1207L119.838 46.1548L113.067 29.2159L109.16 23.0914C110.282 21.8523 110.97 20.2179 110.97 18.4281C110.97 14.5597 107.863 11.4242 104.027 11.4242C102.173 11.4242 100.492 12.1615 99.2469 13.3562L77.5701 2.47507L65.1847 0.25L36.9356 6.85859C35.7439 4.72679 33.484 3.28338 30.8842 3.28338C27.0485 3.28338 23.9455 6.41891 23.9455 10.2872C23.9455 12.0282 24.5943 13.6226 25.6625 14.8484L5.61008 44.9024V65.5454C2.41 66.1716 0 69.0096 0 72.4204C0 76.2399 3.1074 79.3755 6.93867 79.3755C7.18144 79.3755 7.4242 79.3621 7.66255 79.3355L12.562 90.4297L34.5786 106.96C34.0357 107.959 33.7267 109.105 33.7267 110.327C33.7267 114.146 36.8341 117.282 40.6654 117.282C43.2961 117.282 45.5825 115.807 46.761 113.649L64.2313 119.866L101.436 102.981C102.244 103.878 103.4 104.451 104.702 104.451C107.148 104.451 109.125 102.452 109.125 100.018C109.125 98.8104 108.644 97.7179 107.872 96.914L116.196 83.5458C116.452 83.5947 116.717 83.6257 116.986 83.6257C119.432 83.6257 121.409 81.6272 121.409 79.1934C121.409 77.368 120.323 75.8091 118.77 75.1163L118.778 75.1207ZM46.9155 94.4447L52.1107 76.311L66.5795 74.801C67.6035 77.3591 70.0974 79.1845 73.0238 79.1845C74.6393 79.1845 76.1224 78.6249 77.3009 77.6922L87.5941 86.8945C87.1174 87.6051 86.8393 88.4623 86.8393 89.3861C86.8393 89.5992 86.8747 89.8035 86.9011 90.0078L67.5064 97.5269C66.7119 96.3366 65.3656 95.555 63.834 95.555C62.1876 95.555 60.7708 96.4699 60.0072 97.8156L46.9111 94.4402L46.9155 94.4447ZM40.6742 103.323C39.2353 103.323 37.9023 103.762 36.7944 104.517L16.4374 89.2351L20.2996 85.6243C20.9529 86.0107 21.7076 86.2461 22.5242 86.2461C23.6542 86.2461 24.6738 85.8064 25.455 85.1091L42.9959 96.27L40.9699 103.336C40.8728 103.336 40.7757 103.323 40.6742 103.323ZM10.3109 43.761L28.3285 16.7448C29.1186 17.0602 29.9793 17.2423 30.8842 17.2423C31.9214 17.2423 32.9013 17.0069 33.7841 16.5983L35.9911 19.565L22.1402 34.0613L20.2863 40.9808C18.5296 41.0785 17.0509 42.1888 16.4242 43.761H10.3109ZM68.3803 17.0513C68.8968 18.9211 70.5917 20.3156 72.6265 20.3156C73.5844 20.3156 74.4627 20.0003 75.1866 19.4806L88.1326 27.8613L78.6383 35.2427C77.5039 34.4299 76.1224 33.9458 74.6216 33.9458C71.7879 33.9458 69.3602 35.6602 68.2788 38.1117L55.7168 36.7705C55.0018 35.2738 53.501 34.2345 51.7443 34.2345C51.5015 34.2345 51.272 34.27 51.0381 34.3056L40.9479 20.7375L56.6305 15.7367L68.3803 17.0424V17.0513ZM77.9409 6.33452L97.4725 16.1408C97.2253 16.8603 97.0884 17.6286 97.0884 18.4281C97.0884 19.2275 97.2209 19.9337 97.4504 20.6265L90.8825 25.7295L76.9654 16.7226C77.0184 16.4517 77.0493 16.1719 77.0493 15.8832C77.0493 14.5775 76.4843 13.4139 75.5971 12.5967L77.9409 6.33452ZM111.412 33.8836L115.945 45.2266L106.442 47.1897C105.819 45.8306 104.539 44.858 103.016 44.6537L101.476 39.3953L111.412 33.8881V33.8836ZM113.888 76.0223L107.196 73.0822C107.218 72.8646 107.232 72.6469 107.232 72.4204C107.232 69.8578 105.863 67.6239 103.828 66.4025L104.288 53.0699C105.369 52.568 106.203 51.6442 106.6 50.5117L116.488 48.4732L115.517 75.0097C114.903 75.2318 114.347 75.5693 113.892 76.0223H113.888ZM92.6789 85.1802C92.2287 85.0247 91.7564 84.9226 91.2577 84.9226C90.9663 84.9226 90.6794 84.9537 90.4014 85.0114L79.3269 75.1074C79.7285 74.228 79.958 73.251 79.958 72.225C79.958 70.9815 79.6314 69.8134 79.0709 68.8008L81.9267 65.5587L93.5706 70.675C93.4293 71.2302 93.3454 71.812 93.3454 72.416C93.3454 75.0186 94.7888 77.3014 96.9207 78.4916L92.6789 85.1713V85.1802ZM51.581 73.0555L46.1519 65.9051C47.0611 64.7282 47.6085 63.2581 47.6085 61.6593C47.6085 59.4253 46.5712 57.4401 44.9557 56.1566L51.1573 43.0682C51.3515 43.0948 51.5457 43.1259 51.7487 43.1259C53.6997 43.1259 55.3328 41.8468 55.9243 40.097L67.705 41.3538C67.9169 44.9868 70.9272 47.9003 74.626 47.9003C75.8575 47.9003 77.014 47.5716 78.0159 47.0076L79.8565 49.1971V62.9517L76.8374 66.3803C75.7428 65.6475 74.4274 65.2212 73.015 65.2212C69.4088 65.2212 66.4515 67.9925 66.1072 71.5366L51.5766 73.0555H51.581ZM98.5406 41.0207L99.8383 45.4576C98.7348 46.2703 98.011 47.5716 98.011 49.0594C98.011 50.9914 99.2645 52.6302 101.004 53.2298L100.584 65.4299C100.483 65.4299 100.381 65.4166 100.28 65.4166C98.2184 65.4166 96.3734 66.327 95.1022 67.7704L83.1228 62.5031V49.5702L98.5406 41.0207ZM21.306 49.77C23.3717 49.3925 24.9386 47.5849 24.9386 45.4176C24.9386 44.0586 24.3251 42.8594 23.3761 42.0422L25.0666 35.7312L37.9685 22.2298L48.2264 36.0199C47.6659 36.766 47.3216 37.6898 47.3216 38.7024C47.3216 39.715 47.6968 40.6877 48.3015 41.4471L41.9807 54.7842C41.5526 54.6998 41.1156 54.6554 40.661 54.6554C37.8449 54.6554 35.4261 56.3475 34.3403 58.7813L19.483 56.5607L21.3015 49.77H21.306ZM33.74 62.0146C33.9253 65.6697 36.9489 68.6143 40.661 68.6143C41.7115 68.6143 42.7002 68.3745 43.5918 67.9525L49.0342 75.1252L43.9229 92.9746L26.8984 82.1424C26.9072 82.0313 26.9337 81.9247 26.9337 81.8093C26.9337 79.633 25.3888 77.8255 23.3452 77.4302L19.5316 59.8872L33.74 62.0101V62.0146ZM65.7894 103.967C67.0209 103.349 67.9257 102.186 68.1729 100.791L88.5696 92.8813C89.3155 93.4587 90.2381 93.814 91.2533 93.814C92.3523 93.814 93.341 93.3965 94.1179 92.7303L100.562 98.4951C100.403 98.9348 100.306 99.4011 100.293 99.8896L65.7894 115.549V103.967ZM104.702 95.555C103.992 95.555 103.33 95.7415 102.734 96.0391L95.6451 89.7014C95.6539 89.5948 95.676 89.4927 95.676 89.3861C95.676 88.6488 95.4818 87.9649 95.1684 87.352L100.236 79.371C100.236 79.371 100.262 79.371 100.28 79.371C102.725 79.371 104.866 78.0964 106.102 76.1866L112.581 79.0335C112.581 79.0868 112.564 79.1356 112.564 79.1934C112.564 80.166 112.89 81.0631 113.429 81.7959L104.853 95.5683C104.8 95.5683 104.755 95.555 104.702 95.555ZM81.8693 46.5101L80.4083 44.7781C81.1366 43.6766 81.5603 42.362 81.5603 40.9541C81.5603 39.7905 81.2778 38.698 80.779 37.7342L99.1983 23.42C100.447 24.6325 102.142 25.3831 104.018 25.3831C104.87 25.3831 105.687 25.2188 106.442 24.939L109.968 30.9302L81.8693 46.5101ZM65.2685 3.60315L74.8291 5.32192L72.5427 11.4331C70.8919 11.4642 69.4794 12.4102 68.7467 13.787L56.3039 12.4013L38.8733 17.9573L36.3486 14.5597C37.2711 13.3784 37.8272 11.895 37.8272 10.2872C37.8272 10.1984 37.8184 10.114 37.814 10.0252L65.2685 3.59871V3.60315ZM10.7479 78.2296C12.637 76.9816 13.8818 74.8409 13.8818 72.4204C13.8818 69.2316 11.7675 66.5447 8.87638 65.6964V47.0475H16.4153C16.7552 47.9003 17.3423 48.6197 18.097 49.1172L15.7488 57.8709L20.1363 78.0564C18.9092 78.8514 18.0926 80.2282 18.0926 81.8093C18.0926 82.2267 18.1677 82.6265 18.278 83.0084L14.4423 86.5925L10.7435 78.2207L10.7479 78.2296ZM44.1038 104.247L46.0062 97.6068L59.5569 101.098C59.9321 102.59 61.0665 103.776 62.5275 104.233V115.772L47.6041 110.46C47.6041 110.415 47.6129 110.371 47.6129 110.327C47.6129 107.72 46.2004 105.45 44.1082 104.247H44.1038Z" fill="white"></path><title>unareti</title></svg>