<svg xmlns="http://www.w3.org/2000/svg" viewBox="0 0 318.27 166.54"><title>Valentino logo - Brandlogos.net</title><path d="M512.73,586.95h-8.57l4.3-12.9Zm-5.25-16.51-8.42,24.51h2.41l1.93-5.8h10.06l1.93,5.8h2.44l-8.46-24.51Zm-26.14,2.16h6.31a4.49,4.49,0,0,1,3.28,1.34,4.54,4.54,0,0,1,0,6.48,4.49,4.49,0,0,1-3.28,1.34h-6.31Zm13.23,4.54a6.19,6.19,0,0,0-1.8-4.87,6.35,6.35,0,0,0-4.9-1.84h-8.79v24.51h2.26v-11H487l5.36,11H495l-5.4-11.14a6.27,6.27,0,0,0,3.74-2.42A6.14,6.14,0,0,0,494.57,577.14Zm-26.29,9.8h-8.6l4.37-12.9ZM463,570.44l-8.42,24.51H457l2-5.8h10l1.93,5.8h2.44L465,570.44Zm-21.11,13.88h6v1.87a6.73,6.73,0,0,1-1.31,4.58,5.42,5.42,0,0,1-1.81,1.55,5.55,5.55,0,0,1-6.65-1.08c-1.53-1.66-1.68-3.6-1.68-8.54s0-6.88,1.68-8.51a5.16,5.16,0,0,1,4-1.77,5.65,5.65,0,0,1,3.81,1.52,5.53,5.53,0,0,1,1.84,3.64v.32h2.26v-.32a7.65,7.65,0,0,0-1.65-4.17,7.79,7.79,0,0,0-3.68-2.6,8,8,0,0,0-8.42,2.08c-2.15,2.31-2.15,4.54-2.15,9.91s0,7.6,2.15,9.91a7.74,7.74,0,0,0,5.83,2.56,7.55,7.55,0,0,0,6.09-2.88,8.09,8.09,0,0,0,1.9-5.95v-4.29h-8.24Zm98-101.38h-22.9l14.58-35.75,3.65-8.51a16.83,16.83,0,0,1,3.35-5.41,4.85,4.85,0,0,1,3.65-1.15c8.53,0,18,8.51,18,20.72v9.44a20.58,20.58,0,0,1-5.4,14.42,19.21,19.21,0,0,1-6.78,4.73A19.4,19.4,0,0,1,540,482.93Zm-76.27-20.65v-9.44a19.8,19.8,0,0,1,3.06-11.36,20.07,20.07,0,0,1,5.5-5.73,20.37,20.37,0,0,1,11.31-3.63H485a6.72,6.72,0,0,1,4.56,1.62,11.63,11.63,0,0,1,2.88,4.79c.73,1.87,1.24,3.24,1.6,4L511,483.08H483.56a20.09,20.09,0,0,1-11.4-3.57,19.81,19.81,0,0,1-5.52-5.78,19.53,19.53,0,0,1-3-11.45Zm20,24h56.18a23.4,23.4,0,0,0,13.56-3.89,23.09,23.09,0,0,0,6.64-6.72,22.75,22.75,0,0,0,3.61-13.5v-9.44a23.91,23.91,0,0,0-7.73-18,22.12,22.12,0,0,0-14.15-5.95h-19.1v3.06l4.45.32a4.77,4.77,0,0,1,3.65,1.23,4.06,4.06,0,0,1,1.17,2.81,21.36,21.36,0,0,1-2,5.62c-.47,1.19-1.06,2.49-1.64,4l-11.37,27.9-14.11-34.09c-1.2-2.63-1.13-3.6-1.06-4a4,4,0,0,1,1-2.13,3.24,3.24,0,0,1,2.3-1.23l4.59-.32v-3.21H483.6a23.76,23.76,0,0,0-13.14,4.22,23.43,23.43,0,0,0-6.41,6.64,23.11,23.11,0,0,0-3.63,13.18v9.44A23.17,23.17,0,0,0,464,475.44a23.48,23.48,0,0,0,6.43,6.67,23.83,23.83,0,0,0,13.19,4.22Z" transform="translate(-352.87 -428.73)" style="fill:#1d1d1b"/><polygon points="174.74 161.79 168.69 141.71 166.28 141.71 173.75 166 173.83 166.22 175.69 166.22 183.2 141.71 180.83 141.71 174.74 161.79" style="fill:#1d1d1b"/><path d="M551.26,586.95h-8.79l4.3-12.9Zm-3.35-16.51H546l-8.31,24.15v.36h2.41l1.93-5.8H552.1l1.93,5.8h2.41l-8.53-24.26Z" transform="translate(-352.87 -428.73)" style="fill:#1d1d1b"/><path d="M394,507.26v-1.19h-9.62v1.19H388L377.4,544.78l-12.69-37.52h4.48v-1.19H352.87v1.26H358l17,50.35,14.29-50.42H394ZM587.5,570.44h2.26v24.51H587.5Zm-11,20-12.43-19.89-.07-.14h-2.11v24.51h2.22V574.84l12.5,20.11h2.15V570.44h-2.26v20Z" transform="translate(-352.87 -428.73)" style="fill:#1d1d1b"/><path d="M495.67,539.88c-.8,8.18-6.31,14.06-13.16,14.06H473.1v-23.5h2.73c5.14,0,8.39,3.86,8.42,10.06v.65h1V519.23h-1v.25c-.4,5.91-3.65,9.84-7.69,9.84H473.1v-22h10.72a7.12,7.12,0,0,1,5,1.33,12.72,12.72,0,0,1,4.41,9.55v.58h.95V506.07H461.91v1.23h4.74v46.85h-5v1.15h34.93V539.63h-.84ZM424.94,554v1.15h34V538.9h-1v.25a20.78,20.78,0,0,1-1.39,6.67,12,12,0,0,1-4.31,5.73,12.22,12.22,0,0,1-6.81,2.38h-8.71V507.3h5.47v-1.23H424.79v1.23h5.4v46.85Zm-31.39-15.53L400,516.13l6.74,22.35Zm9.73-32.65h-1.2L387.83,554h-4.48v1.15h10.06V554h-4.34l4.16-14.42h13.89L411.45,554H407v1.15h15.9V554h-5Z" transform="translate(-352.87 -428.73)" style="fill:#1d1d1b"/><polygon points="177.87 128.41 177.87 78.57 182.36 78.57 182.36 77.34 172.7 77.34 172.7 78.57 176.71 78.57 176.71 112.23 158.15 77.34 151.37 77.34 151.26 77.16 151.26 77.34 146.48 77.34 146.48 78.57 150.68 78.57 150.64 125.28 146.48 125.28 146.48 126.43 155.93 126.43 155.93 125.28 151.81 125.28 151.84 79.4 177.87 128.41" style="fill:#1d1d1b"/><path d="M562.24,507.26c4.59,0,9,5.95,9.62,13v.25h.91V506.07H538.5v14.42h.91v-.25c1.2-7.86,5.4-12.9,10.94-12.9h2.22v46.85h-4.67v1.15h15.46v-1.15h-4.52V507.33Z" transform="translate(-352.87 -428.73)" style="fill:#1d1d1b"/><path d="M622.68,507.3h4V541l-18.56-34.89h-6.82l-.07-.18v.18h-4.81v1.23h4.19V554h-4.19v1.15h9.48V554h-4.12V508.13l26.07,49V507.3h4.48v-1.23h-9.66Zm-45.79,0h4.81V554h-4.85v1.15h15.68V554h-4.74V507.3h4.74v-1.23H576.89Z" transform="translate(-352.87 -428.73)" style="fill:#1d1d1b"/><path d="M664.5,530.43a67.93,67.93,0,0,1-1,11.79C661.87,551.16,658.41,555,652,555a8.35,8.35,0,0,1-6.71-2.67c-3-3.39-4.78-11.39-4.78-21.37A57.76,57.76,0,0,1,642,517.42c1.71-7.21,5.21-10.81,10.43-10.81a8.84,8.84,0,0,1,7.29,3.17c2.88,3.24,4.81,11.24,4.81,20.47Zm-11.78-25.23c-10,0-18.81,12.29-18.81,26.27,0,13.3,8.35,24.54,18.23,24.54s19-11.21,19-24.47c0-14-8.6-26.35-18.41-26.35Z" transform="translate(-352.87 -428.73)" style="fill:#1d1d1b"/></svg>